<svg clip-rule="evenodd" fill-rule="evenodd" height="1518" image-rendering="optimizeQuality" shape-rendering="geometricPrecision" text-rendering="geometricPrecision" viewBox="14000.03 10271.63 7289.29 1313.6" width="2500" xmlns="http://www.w3.org/2000/svg"><rect fill="#0266ae" height="1580.46" rx="64.05" width="2071.75" x="13780" y="10004.77"/><rect fill="#ffdd30" height="1580.46" rx="179.83" ry="64.05" width="5817.02" x="15962.98" y="10004.77"/><path d="m14416.41 10543.56c102.15 0 184.97 82.82 184.97 184.96 0 18.6-2.76 36.55-7.86 53.48h1051.02v164.8h-80.92v217.31h-82.87v-112.94h-80.86v112.94h-86.21v-217.31h-719.14c4.46 15.89 6.84 32.65 6.84 49.96 0 102.15-82.82 184.96-184.97 184.96-86.27 0-158.74-59.07-179.19-138.97-16.57 4.87-34.09 7.49-52.23 7.49-102.15 0-184.96-82.82-184.96-184.97 0-102.14 82.81-184.96 184.96-184.96 17.71 0 34.83 2.49 51.04 7.14 18.68-82.38 92.35-143.89 180.38-143.89zm-63.49 399.33c-4.36 9.42-9.49 18.41-15.31 26.89-2.9 8.46-4.47 17.54-4.47 26.98 0 45.99 37.28 83.28 83.27 83.28s83.28-37.29 83.28-83.28-37.29-83.27-83.28-83.27c-25.44 0-48.21 11.42-63.49 29.4zm-104.43-23.76c4.36-9.4 9.49-18.38 15.3-26.85 2.9-8.47 4.48-17.56 4.48-27.01 0-45.98-37.29-83.27-83.28-83.27s-83.28 37.29-83.28 83.27c0 45.99 37.29 83.28 83.28 83.28 25.45 0 48.23-11.42 63.5-29.42zm167.92-273.88c45.99 0 83.28 37.28 83.28 83.27s-37.29 83.28-83.28 83.28-83.27-37.29-83.27-83.28 37.28-83.27 83.27-83.27z" fill="#ffdd30"/><path d="m17050.41 10271.63c154.41 0 292.75 68.01 386.15 175.39l-110.37 110.37c-63.41-76.81-159.42-125.78-266.87-125.78-190.94 0-345.72 154.59-345.72 345.29s154.78 345.29 345.72 345.29c108.82 0 205.88-50.24 269.25-128.74l109.21 109.22c-93.41 108.21-232.28 176.83-387.37 176.83-281.26 0-509.27-225.62-509.27-503.94 0-278.31 228.01-503.93 509.27-503.93zm817.61 267.91c209.55 0 379.42 164.26 379.42 366.9 0 202.63-169.87 366.89-379.42 366.89-209.54 0-379.42-164.26-379.42-366.89 0-202.64 169.88-366.9 379.42-366.9zm0 150.34c123.69 0 223.95 96.96 223.95 216.56s-100.26 216.55-223.95 216.55c-123.68 0-223.95-96.95-223.95-216.55s100.27-216.56 223.95-216.56zm821.67-150.34c209.55 0 379.42 164.26 379.42 366.9 0 202.63-169.87 366.89-379.42 366.89-85.6 0-164.58-27.43-228.06-73.67v385.57h-151.36v-712.29h1.59c17.5-186.93 179.97-333.4 377.83-333.4zm0 150.34c123.68 0 223.95 96.96 223.95 216.56s-100.27 216.55-223.95 216.55-223.95-96.95-223.95-216.55 100.27-216.56 223.95-216.56zm827.07-150.34c209.55 0 379.43 164.26 379.43 366.9 0 202.63-169.88 366.89-379.43 366.89-85.59 0-164.57-27.43-228.06-73.67v385.57h-151.35v-712.29h1.59c17.5-186.93 179.96-333.4 377.82-333.4zm0 150.34c123.69 0 223.95 96.96 223.95 216.56s-100.26 216.55-223.95 216.55c-123.68 0-223.94-96.95-223.94-216.55s100.26-216.56 223.94-216.56zm797.35-150.34c221.82 0 333.26 190.6 333.26 368.59l-2.94 34.5h-1.56c-.08-.85-.17-.93-.27 0h-549.49c17.5 106.83 79.33 188.4 224.13 188.4 76.03 0 143.33-36.95 184.54-93.69l101.07 107.09c-69.59 78.88-126.16 128.9-288.74 128.9-229.33 0-371.84-164.26-371.84-366.89s150.02-366.9 371.84-366.9zm176.72 295.71c-14.96-67.91-68.89-153.41-173.59-153.41-100.26 0-185.32 64.26-215.42 153.41zm220.54 107.38v-654.78h165.93v654.78c0 90.08 110.62 182.32 199.49 182.32v152.87c-177.74 0-365.42-169.9-365.42-335.19zm499.71 182.32c13.14 0 25.96 3.37 38.5 10.13 12.5 6.73 22.28 16.4 29.26 28.94 6.97 12.57 10.48 25.68 10.48 39.28 0 13.49-3.44 26.49-10.34 38.92-6.88 12.47-16.51 22.14-28.94 29.01-12.44 6.91-25.43 10.34-38.96 10.34-13.57 0-26.57-3.43-39-10.34-12.43-6.87-22.1-16.54-29.01-29.01-6.9-12.43-10.37-25.43-10.37-38.92 0-13.6 3.5-26.71 10.52-39.28 7.04-12.54 16.82-22.21 29.32-28.94 12.54-6.76 25.36-10.13 38.54-10.13zm0 12.97c-11.02 0-21.75 2.83-32.16 8.46-10.42 5.63-18.56 13.71-24.44 24.19-5.88 10.49-8.82 21.4-8.82 32.73 0 11.3 2.9 22.1 8.68 32.44 5.77 10.35 13.84 18.42 24.22 24.19 10.38 5.78 21.22 8.68 32.52 8.68 11.26 0 22.1-2.9 32.47-8.68 10.38-5.77 18.46-13.84 24.2-24.19 5.73-10.34 8.6-21.14 8.6-32.44 0-11.33-2.94-22.24-8.78-32.73-5.85-10.48-13.99-18.56-24.44-24.19s-21.14-8.46-32.05-8.46zm-34.39 108.59v-84.16h28.97c9.92 0 17.07.79 21.5 2.34 4.46 1.56 7.97 4.25 10.62 8.15 2.62 3.86 3.94 7.97 3.94 12.32 0 6.13-2.2 11.52-6.63 16.05-4.39 4.57-10.23 7.12-17.53 7.68 2.98 1.25 5.38 2.73 7.16 4.47 3.4 3.29 7.54 8.85 12.46 16.68l10.28 16.47h-16.51l-7.51-13.25c-5.88-10.45-10.66-17-14.28-19.62-2.47-1.91-6.09-2.87-10.87-2.83h-8v35.7zm13.6-47.39h16.5c7.9 0 13.28-1.17 16.15-3.51 2.87-2.33 4.32-5.45 4.32-9.28 0-2.48-.7-4.71-2.09-6.65-1.38-1.99-3.29-3.44-5.73-4.4-2.48-.96-7.02-1.45-13.68-1.45h-15.47z" fill="#0266ae"/></svg>